<svg xmlns="http://www.w3.org/2000/svg" width="13" height="13" viewBox="0 0 13 13" fill="none">
  <path
    d="M6.5 1.5C5.5 1.5 4.8 2 4.5 2.5C3.8 2.2 3 2.5 2.7 3.2C2.2 3.5 1.8 4.2 2 5C1.5 5.5 1.5 6.3 2 7C1.8 7.7 2 8.5 2.7 9C3 9.5 3.5 9.8 4.2 9.8C4.5 10.5 5.2 11 6 11.2V7"
    stroke="#FFFFFF"
    stroke-width="1"
    stroke-linecap="round"
    stroke-linejoin="round"
  />
  <path
    d="M6.5 1.5C7.5 1.5 8.2 2 8.5 2.5C9.2 2.2 10 2.5 10.3 3.2C10.8 3.5 11.2 4.2 11 5C11.5 5.5 11.5 6.3 11 7C11.2 7.7 11 8.5 10.3 9C10 9.5 9.5 9.8 8.8 9.8C8.5 10.5 7.8 11 7 11.2V7"
    stroke="#FFFFFF"
    stroke-width="1"
    stroke-linecap="round"
    stroke-linejoin="round"
  />
  <path
    d="M4.5 5C5 5.5 5.5 6 6.5 6.5"
    stroke="#FFFFFF"
    stroke-width="0.7"
    stroke-linecap="round"
  />
  <path
    d="M8.5 5C8 5.5 7.5 6 6.5 6.5"
    stroke="#FFFFFF"
    stroke-width="0.7"
    stroke-linecap="round"
  />
</svg>
